<?xml version="1.0" encoding="UTF-8"?>
<svg xmlns="http://www.w3.org/2000/svg"
    xmlns:xlink="http://www.w3.org/1999/xlink" width="800" height="600" baseProfile="full" version="1.1" viewBox="0 0 800 600">
    <defs>
        <marker id="arrow_head" markerHeight="8" markerWidth="8" orient="auto" refX="0.125" refY="3" viewBox="0 0 5 6">
            <path fill="rgb(242, 101, 34)" d="M0,0 V6 L5,3 Z"/>
        </marker>
    </defs>
    <rect width="100%" height="100%" fill="white"/>
    <g transform="scale(1, 1)">
        <path style="fill:rgb(255,255,255);stroke-width:3;stroke:rgb(0,173.91,238.935)" d="M 275.880249 188.4888916 272.0967407 188.8647461 266.3337402 190.0674438 262.5502014 190.9945374 258.0149536 192.6983948 251.0743103 195.579895 247.0151672 198.0604858 244.2839966 200.3907471 242.3796997 202.9966125 241.628006 204.7255249 241.3774414 206.2539673 241.076767 211.0147095 241.2270966 216.0761108 241.628006 219.2833557 243.1815033 222.3903503 242.830719 225.5474854 242.0289154 234.7682495 237.3182831 245.9184265 235.4139862 250.2281494 235.138382 252.5834656 235.0882874 255.5902405 234.6873779 259.2986145 234.3365784 264.0843811 234.8627777 266.8030396 236.9770203 271.7424622 239.244873 275.4985962 243.4616547 279.3610535 247.7493286 282.0895996 250.4424133 283.1880798 252.2850342 284.1448364 252.852005 288.9285889 249.2954254 296.4072266 247.3410034 304.9264526 246.8899994 312.1928101 246.1382904 315.6506653 246.6394348 326.8759766 247.140564 338.1012878 247.140564 338.3016968 249.951355 343.3727417 252.7621307 348.2433167 254.8882446 353.2042847 256.0930481 354.9760132 256.3056641 360.4330444 257.2978516 362.6300354 259.9200439 367.0948792 263.3218384 370.8510437 266.0149231 372.5519409 268.3536377 379.2137451 272.3224182 383.5368652 280.6851196 389.8443604 284.6295776 395.7408752 295.7096863 404.053894 306.4819946 407.7391968 318.8134766 410.9638062 327.4761963 411.8772888 327.9272461 415.4352722 327.1254272 427.1116333 325.4215698 429.0158997 322.1642456 430.7197571 314.4194946 433.5360107 304.9228516 437.611084 299.997345 442.5365601 297.4460144 448.9503784 296.9499207 453.9467468 297.0074463 459.0837402 312.1516113 459.9353027 342.9094238 460.9274902 372.9585571 460.5022583 399.6890869 462.0404053 461.6287842 460.6873779 465.4373474 460.1862183 477.8153076 457.6805725 483.7787476 453.22052 487.0861816 451.3162231 488.3390198 449.1112671 490.8947754 448.0087585 496.0564575 444.1500244 505.8786011 443.8995361 512.4434204 442.8471375 516.9535522 443.7492065 518.907959 443.0476074 521.7644043 442.6968384 524.2199707 442.0954895 526.5752563 441.6945801 528.7301025 441.9450989 530.43396 441.5942993 533.7414551 441.1433105 535.3450317 440.5419617 537.1992188 440.0408325 540.1083374 437.9654846 550.7388916 428.894043 552.581543 428.6105652 554.2824707 427.1931458 557.7456055 420.9477234 560.1008911 416.638031 563.2580566 409.1210632 564.9619141 405.9138184 565.2124023 403.057373 565.6634521 399.9002686 565.3126221 391.2808228 564.210144 386.6704407 562.680542 383.7495117 558.7472534 379.3555298 552.6169434 376.3081055 549.7467041 375.5285339 546.026001 375.6704407 539.3641968 376.0247803 537.3443604 376.0955811 536.1750488 375.4577637 535.3954468 374.4301453 535.0056152 373.0481567 532.3126221 335.1324463 531.0368652 329.675415 528.6273193 320.9583435 525.0838013 312.7373352 520.1937256 303.4533081 517.1463013 299.0593567 504.6022034 282.5465088 494.8929443 273.0498657 483.6954041 265.1123352 468.4582214 257.6000671 455.5597839 253.6313477 442.7322388 252.8517456 431.1094666 253.7730713 413.462677 256.25354 401.9107971 259.4427185 380.0826721 265.4667053 374.9091187 265.6084595 371.6490784 264.5454102 364.84552 261.9940491 355.9158325 259.442749 350.4588013 258.663147 345.5687256 257.6709595 341.8834839 254.1274414 337.8438416 248.3869019 335.8594971 244.5599365 334.5838013 240.3076782 333.4396362 235.8804321 333.2391663 231.47052 333.6400757 228.4637146 335.1434937 227.0605469 367.8171692 209.2203064 403.2972107 193.9859314 411.5157471 187.4712524 415.1238708 183.562439 417.9302063 180.0545044 419.1329346 176.4463806 419.9347534 170.1321411 419.333374 161.7131348 417.7297668 154.9979858 414.4223022 148.5835571 410.9143982 142.9708862 407.807373 142.3695068 407.6069336 141.4674988 406.3040161 139.7636414 403.9987793 138.2602539 400.5911255 137.9595947 396.7825317 138.6611328 392.8737183 139.9641113 357.8948059 161.9136047 346.4690552 170.0319214 338.2505188 176.6468506 312.7930908 199.3981323 313.09375 190.9791565 313.8955688 189.1751099 316.9023438 180.4554443 317.6039429 173.9407349 316.5014648 164.3190308 313.3944397 159.1072693 308.9844971 154.4968872 303.4720459 152.1916809 297.0575867 151.3898621 291.545166 152.89328 284.8300171 156.1004944 282.0236816 157.6038818 280.1193848 160.2097778 278.3153076 184.4644775  Z" />
        <line x1="600" y1="100.001" x2="515.81" y2="268.38" stroke="rgb(242, 101, 34)" stroke-width="3" marker-end="url(#arrow_head)"/>
        <line x1="507.098" y1="285.827" x2="571.88" y2="333.613" stroke="rgb(242, 101, 34)" stroke-width="3" marker-end="url(#arrow_head)"/>
        <line x1="507.099" y1="285.824" x2="582.72" y2="313.423" stroke="rgb(242, 101, 34)" stroke-width="3" marker-end="url(#arrow_head)"/>
        <line x1="507.1" y1="285.822" x2="587.433" y2="290.998" stroke="rgb(242, 101, 34)" stroke-width="3" marker-end="url(#arrow_head)"/>
        <line x1="507.099" y1="285.819" x2="585.637" y2="268.153" stroke="rgb(242, 101, 34)" stroke-width="3" marker-end="url(#arrow_head)"/>
        <line x1="507.098" y1="285.816" x2="577.478" y2="246.739" stroke="rgb(242, 101, 34)" stroke-width="3" marker-end="url(#arrow_head)"/>
        <line x1="507.097" y1="285.814" x2="563.616" y2="228.492" stroke="rgb(242, 101, 34)" stroke-width="3" marker-end="url(#arrow_head)"/>
        <line x1="507.094" y1="285.812" x2="545.175" y2="214.889" stroke="rgb(242, 101, 34)" stroke-width="3" marker-end="url(#arrow_head)"/>
        <line x1="507.092" y1="285.811" x2="523.648" y2="207.032" stroke="rgb(242, 101, 34)" stroke-width="3" marker-end="url(#arrow_head)"/>
        <line x1="507.089" y1="285.811" x2="500.78" y2="205.558" stroke="rgb(242, 101, 34)" stroke-width="3" marker-end="url(#arrow_head)"/>
        <line x1="507.086" y1="285.812" x2="478.423" y2="210.587" stroke="rgb(242, 101, 34)" stroke-width="3" marker-end="url(#arrow_head)"/>
    </g>
</svg>