<?xml version="1.0" encoding="UTF-8"?><svg xmlns="http://www.w3.org/2000/svg" xmlns:xlink="http://www.w3.org/1999/xlink" width="800" height="600" baseProfile="full" version="1.1" viewBox="0 0 800 600">
    <defs>
    <marker id="arrow_head" markerHeight="8" markerWidth="8" orient="auto" refX="0.125" refY="3" viewBox="0 0 5 6">
             <path fill="rgb(242, 101, 34)" d="M0,0 V6 L5,3 Z"/>
    </marker>
     </defs>
    <rect width="100%" height="100%" fill="white"/>
    <g transform="scale(1, 1)"><circle cx="300" cy="300" r="45" style="fill:rgb(255,255,255);stroke-width:3;stroke:rgb(0,173.91,238.935)"></circle>
<circle cx="400" cy="300" r="45" style="fill:rgb(255,255,255);stroke-width:3;stroke:rgb(0,173.91,238.935)"></circle>
<circle cx="500" cy="300" r="45" style="fill:rgb(255,255,255);stroke-width:3;stroke:rgb(0,173.91,238.935)"></circle>
<circle cx="300" cy="200" r="45" style="fill:rgb(255,255,255);stroke-width:3;stroke:rgb(0,173.91,238.935)"></circle>
<circle cx="400" cy="200" r="45" style="fill:rgb(255,255,255);stroke-width:3;stroke:rgb(0,173.91,238.935)"></circle>
<circle cx="500" cy="200" r="45" style="fill:rgb(255,255,255);stroke-width:3;stroke:rgb(0,173.91,238.935)"></circle>
<circle cx="300" cy="400" r="45" style="fill:rgb(255,255,255);stroke-width:3;stroke:rgb(0,173.91,238.935)"></circle>
<circle cx="400" cy="400" r="45" style="fill:rgb(255,255,255);stroke-width:3;stroke:rgb(0,173.91,238.935)"></circle>
<circle cx="500" cy="400" r="45" style="fill:rgb(255,255,255);stroke-width:3;stroke:rgb(0,173.91,238.935)"></circle>
<circle cx="300" cy="500" r="45" style="fill:rgb(255,255,255);stroke-width:3;stroke:rgb(0,173.91,238.935)"></circle>
<circle cx="400" cy="500" r="45" style="fill:rgb(255,255,255);stroke-width:3;stroke:rgb(0,173.91,238.935)"></circle>
<circle cx="500" cy="500" r="45" style="fill:rgb(255,255,255);stroke-width:3;stroke:rgb(0,173.91,238.935)"></circle>
<line x1="264.049" y1="472.949" x2="286.795" y2="526.692" stroke="rgb(242, 101, 34)" stroke-width="3" marker-end="url(#arrow_head)"/>
<line x1="264.295" y1="427.398" x2="264.152" y2="453.44" stroke="rgb(242, 101, 34)" stroke-width="3" marker-end="url(#arrow_head)"/>
<line x1="294.766" y1="355.314" x2="271.888" y2="409.428" stroke="rgb(242, 101, 34)" stroke-width="3" marker-end="url(#arrow_head)"/>
<line x1="305.616" y1="344.654" x2="294.77" y2="355.305" stroke="rgb(242, 101, 34)" stroke-width="3" />
<line x1="335.672" y1="272.582" x2="313.128" y2="326.649" stroke="rgb(242, 101, 34)" stroke-width="3" marker-end="url(#arrow_head)"/>
<line x1="335.478" y1="227.693" x2="335.59" y2="253.073" stroke="rgb(242, 101, 34)" stroke-width="3" marker-end="url(#arrow_head)"/>
<line x1="305.319" y1="155.324" x2="327.976" y2="209.684" stroke="rgb(242, 101, 34)" stroke-width="3" marker-end="url(#arrow_head)"/>
<line x1="250.001" y1="100.001" x2="291.526" y2="141.526" stroke="rgb(242, 101, 34)" stroke-width="3" marker-end="url(#arrow_head)"/>
</g>
      </svg>