<?xml version="1.0" encoding="UTF-8"?>
<svg xmlns="http://www.w3.org/2000/svg"
    xmlns:xlink="http://www.w3.org/1999/xlink" width="600" height="700" baseProfile="full" version="1.1" viewBox="0 0 600 700">
    <defs>
        <marker id="arrow_head" markerHeight="8" markerWidth="8" orient="auto" refX="0.125" refY="3" viewBox="0 0 5 6">
            <path fill="rgb(242, 101, 34)" d="M0,0 V6 L5,3 Z"/>
        </marker>
    </defs>
    <rect width="100%" height="100%" fill="white"/>
    <g transform="scale(1, 1)">
        <path style="fill:rgb(255,255,255);stroke-width:3;stroke:rgb(0,173.91,238.935)" d="M 100 525 500 525 500 475 100 475  Z" />
        <path style="fill:rgb(255,255,255);stroke-width:3;stroke:rgb(0,173.91,238.935)" d="M 100 425 500 425 500 375 100 375  Z" />
        <path style="fill:rgb(255,255,255);stroke-width:3;stroke:rgb(0,173.91,238.935)" d="M 100 325 500 325 500 275 100 275  Z" />
        <line x1="359.299" y1="525.008" x2="406.646" y2="590.111" stroke="rgb(242, 101, 34)" stroke-width="3" marker-end="url(#arrow_head)"/>
        <line x1="339.532" y1="475.009" x2="352.124" y2="506.865" stroke="rgb(242, 101, 34)" stroke-width="3" marker-end="url(#arrow_head)"/>
        <line x1="303.171" y1="425.008" x2="328.059" y2="459.23" stroke="rgb(242, 101, 34)" stroke-width="3" marker-end="url(#arrow_head)"/>
        <line x1="283.404" y1="375.009" x2="295.996" y2="406.865" stroke="rgb(242, 101, 34)" stroke-width="3" marker-end="url(#arrow_head)"/>
        <line x1="247.043" y1="325.008" x2="271.931" y2="359.23" stroke="rgb(242, 101, 34)" stroke-width="3" marker-end="url(#arrow_head)"/>
        <line x1="227.276" y1="275.009" x2="239.869" y2="306.865" stroke="rgb(242, 101, 34)" stroke-width="3" marker-end="url(#arrow_head)"/>
        <line x1="100.001" y1="100.001" x2="215.803" y2="259.23" stroke="rgb(242, 101, 34)" stroke-width="3" marker-end="url(#arrow_head)"/>
    </g>
</svg>