<?xml version="1.0" encoding="UTF-8" standalone="no"?>
<svg
   xmlns:dc="http://purl.org/dc/elements/1.1/"
   xmlns:cc="http://creativecommons.org/ns#"
   xmlns:rdf="http://www.w3.org/1999/02/22-rdf-syntax-ns#"
   xmlns:svg="http://www.w3.org/2000/svg"
   xmlns="http://www.w3.org/2000/svg"
   xmlns:sodipodi="http://sodipodi.sourceforge.net/DTD/sodipodi-0.dtd"
   xmlns:inkscape="http://www.inkscape.org/namespaces/inkscape"
   sodipodi:docname="header.svg"
   inkscape:version="1.0 (4035a4fb49, 2020-05-01)"
   id="svg8"
   version="1.1"
   viewBox="0 0 391.04627 104.43335"
   height="104.43335mm"
   width="391.04626mm">
  <defs
     id="defs2">
    <marker
       id="arrow_head"
       markerHeight="8"
       markerWidth="8"
       orient="auto"
       refX="0.125"
       refY="3"
       viewBox="0 0 5 6">
      <path
         fill="#f26522"
         d="M 0,0 V 6 L 5,3 Z"
         id="path10" />
    </marker>
    <marker
       id="arrow_head-1"
       markerHeight="8"
       markerWidth="8"
       orient="auto"
       refX="0.125"
       refY="3"
       viewBox="0 0 5 6">
      <path
         fill="#f26522"
         d="M 0,0 V 6 L 5,3 Z"
         id="path67" />
    </marker>
    <marker
       id="arrow_head-5"
       markerHeight="8"
       markerWidth="8"
       orient="auto"
       refX="0.125"
       refY="3"
       viewBox="0 0 5 6">
      <path
         fill="#f26522"
         d="M 0,0 V 6 L 5,3 Z"
         id="path112" />
    </marker>
  </defs>
  <sodipodi:namedview
     inkscape:window-maximized="1"
     inkscape:window-y="224"
     inkscape:window-x="2552"
     inkscape:window-height="1137"
     inkscape:window-width="1920"
     fit-margin-bottom="0"
     fit-margin-right="0"
     fit-margin-left="0"
     fit-margin-top="0"
     showgrid="false"
     inkscape:document-rotation="0"
     inkscape:current-layer="layer1"
     inkscape:document-units="mm"
     inkscape:cy="354.44695"
     inkscape:cx="720.43092"
     inkscape:zoom="0.7"
     inkscape:pageshadow="2"
     inkscape:pageopacity="0.0"
     borderopacity="1.0"
     bordercolor="#666666"
     pagecolor="#ffffff"
     id="base" />
  <metadata
     id="metadata5">
    <rdf:RDF>
      <cc:Work
         rdf:about="">
        <dc:format>image/svg+xml</dc:format>
        <dc:type
           rdf:resource="http://purl.org/dc/dcmitype/StillImage" />
        <dc:title></dc:title>
      </cc:Work>
    </rdf:RDF>
  </metadata>
  <g
     transform="translate(31.392445,-55.989991)"
     id="layer1"
     inkscape:groupmode="layer"
     inkscape:label="Ebene 1">
    <g
       transform="matrix(0.26458333,0,0,0.26458333,94.861805,11.933801)"
       id="g41">
      <path
         id="path17"
         d="M 176.25632,559.099 459.09903,276.25632 423.74368,240.90097 140.90097,523.74365 Z"
         style="fill:#ffffff;stroke:#00adee;stroke-width:3" />
      <line
         id="line19"
         marker-end="url(#arrow_head)"
         stroke-width="3"
         stroke="#f26522"
         y2="356.034"
         x2="281.034"
         y1="175.00101"
         x1="100.001" />
      <line
         id="line21"
         marker-end="url(#arrow_head)"
         stroke-width="3"
         stroke="#f26522"
         y2="299.16"
         x2="333.40701"
         y1="369.814"
         x1="294.827" />
      <line
         id="line23"
         marker-end="url(#arrow_head)"
         stroke-width="3"
         stroke="#f26522"
         y2="291.15201"
         x2="311.936"
         y1="369.81299"
         x1="294.82401" />
      <line
         id="line25"
         marker-end="url(#arrow_head)"
         stroke-width="3"
         stroke="#f26522"
         y2="289.517"
         x2="289.07901"
         y1="369.81201"
         x1="294.82199" />
      <line
         id="line27"
         marker-end="url(#arrow_head)"
         stroke-width="3"
         stroke="#f26522"
         y2="294.388"
         x2="266.68701"
         y1="369.81299"
         x1="294.819" />
      <line
         id="line29"
         marker-end="url(#arrow_head)"
         stroke-width="3"
         stroke="#f26522"
         y2="305.371"
         x2="246.57401"
         y1="369.814"
         x1="294.81601" />
      <line
         id="line31"
         marker-end="url(#arrow_head)"
         stroke-width="3"
         stroke="#f26522"
         y2="321.57401"
         x2="230.371"
         y1="369.81601"
         x1="294.814" />
      <line
         id="line33"
         marker-end="url(#arrow_head)"
         stroke-width="3"
         stroke="#f26522"
         y2="341.68701"
         x2="219.388"
         y1="369.819"
         x1="294.81299" />
      <line
         id="line35"
         marker-end="url(#arrow_head)"
         stroke-width="3"
         stroke="#f26522"
         y2="364.07901"
         x2="214.517"
         y1="369.82199"
         x1="294.81201" />
      <line
         id="line37"
         marker-end="url(#arrow_head)"
         stroke-width="3"
         stroke="#f26522"
         y2="386.936"
         x2="216.15199"
         y1="369.82401"
         x1="294.81299" />
      <line
         id="line39"
         marker-end="url(#arrow_head)"
         stroke-width="3"
         stroke="#f26522"
         y2="408.40701"
         x2="224.16"
         y1="369.827"
         x1="294.814" />
    </g>
    <g
       transform="matrix(0.26458333,0,0,0.26458333,-84.028744,29.812027)"
       id="g90">
      <path
         id="path74"
         d="m 275.88025,188.48889 -3.78351,0.37586 -5.763,1.20269 -3.78354,0.9271 -4.53525,1.70385 -6.94064,2.8815 -4.05914,2.4806 -2.73117,2.33026 -1.9043,2.60586 -0.75169,1.72891 -0.25057,1.52845 -0.30067,4.76074 0.15033,5.0614 0.40091,3.20725 1.55349,3.10699 -0.35078,3.15714 -0.8018,9.22076 -4.71064,11.15018 -1.90429,4.30972 -0.27561,2.35532 -0.0501,3.00677 -0.40091,3.70837 -0.3508,4.78577 0.5262,2.71866 2.11424,4.93942 2.26785,3.75614 4.21678,3.86245 4.28768,2.72855 2.69308,1.09848 1.84262,0.95676 0.56697,4.78375 -3.55657,7.47864 -1.95443,8.51922 -0.451,7.26636 -0.75171,3.45786 0.50114,11.22531 0.50113,11.22531 v 0.20041 l 2.81079,5.07104 2.81078,4.87058 2.12611,4.96096 1.20481,1.77173 0.21261,5.45703 0.99219,2.197 2.62219,4.46484 3.4018,3.75616 2.69308,1.7009 2.33872,6.66181 3.96878,4.32312 8.3627,6.30749 3.94446,5.89652 11.08011,8.31301 10.7723,3.68531 12.33149,3.22461 8.66272,0.91348 0.45105,3.55798 -0.80182,11.67636 -1.70386,1.90427 -3.25732,1.70386 -7.74476,2.81625 -9.49664,4.07507 -4.92551,4.92548 -2.55133,6.41382 -0.49609,4.99637 0.0575,5.13699 15.14416,0.85156 30.75781,0.99219 30.04914,-0.42523 26.73053,1.53815 61.93969,-1.35303 3.80857,-0.50116 12.37796,-2.50565 5.96344,-4.46005 3.30743,-1.9043 1.25284,-2.20495 2.55576,-1.10251 5.16168,-3.85874 9.82214,-0.25048 6.56482,-1.0524 4.51013,0.90207 1.95441,-0.7016 2.85644,-0.35077 2.45557,-0.60135 2.35529,-0.40091 2.15484,0.25052 1.70386,-0.3508 3.3075,-0.45099 1.60357,-0.60135 1.85419,-0.50113 2.90912,-2.07535 10.63055,-9.07144 1.84265,-0.28347 1.70093,-1.41742 3.46314,-6.24543 2.35528,-4.30969 3.15717,-7.51697 1.70385,-3.20724 0.25049,-2.85645 0.45105,-3.1571 -0.35083,-8.61945 -1.10248,-4.61038 -1.5296,-2.92093 -3.93329,-4.39398 -6.13031,-3.04742 -2.87024,-0.77958 -3.7207,0.14191 -6.6618,0.35434 -2.01984,0.0708 -1.16931,-0.63782 -0.7796,-1.02761 -0.38983,-1.38199 -2.693,-37.91571 -1.27575,-5.45704 -2.40955,-8.71707 -3.54352,-8.221 -4.89007,-9.28403 -3.04743,-4.39395 -12.5441,-16.51285 -9.70926,-9.49664 -11.19754,-7.93753 -15.23718,-7.51227 -12.89844,-3.96872 -12.82754,-0.7796 -11.62277,0.92132 -17.64679,2.48047 -11.55188,3.18918 -21.82813,6.02399 -5.17355,0.14175 -3.26004,-1.06305 -6.80356,-2.55136 -8.92969,-2.5513 -5.45703,-0.7796 -4.89007,-0.99219 -3.68525,-3.54352 -4.03964,-5.74054 -1.98434,-3.82696 -1.2757,-4.25226 -1.14416,-4.42725 -0.20047,-4.40991 0.40091,-3.00681 1.50341,-1.40316 32.67368,-17.84024 35.48004,-15.23438 8.21854,-6.51468 3.60812,-3.90881 2.80634,-3.50794 1.20272,-3.60812 0.80182,-6.31424 -0.60138,-8.41901 -1.6036,-6.71514 -3.30747,-6.41443 -3.5079,-5.61267 -3.10703,-0.60138 -0.20044,-0.90201 -1.30291,-1.70386 -2.30524,-1.50339 -3.40765,-0.30066 -3.8086,0.70154 -3.90881,1.30298 -34.97891,21.94949 -11.42575,8.11832 -8.21854,6.61493 -25.45743,22.75128 0.30066,-8.41897 0.80182,-1.80405 3.00677,-8.71967 0.7016,-6.51471 -1.10248,-9.6217 -3.10702,-5.21176 -4.40994,-4.61038 -5.51245,-2.30521 -6.41446,-0.80182 -5.51242,1.50342 -6.71515,3.20721 -2.80634,1.50339 -1.9043,2.6059 -1.80407,24.2547 z"
         style="fill:#ffffff;stroke:#00adee;stroke-width:3" />
      <line
         style="marker-end:url(#arrow_head-1)"
         id="line76"
         marker-end="url(#arrow_head-1)"
         stroke-width="3"
         stroke="#f26522"
         y2="483.54501"
         x2="589.77698"
         y1="442.883"
         x1="520.30103" />
      <line
         style="marker-end:url(#arrow_head-1)"
         id="line78"
         marker-end="url(#arrow_head-1)"
         stroke-width="3"
         stroke="#f26522"
         y2="427.263"
         x2="508.61301"
         y1="263.75699"
         x1="386.311" />
      <line
         style="marker-end:url(#arrow_head-1)"
         id="line80"
         marker-end="url(#arrow_head-1)"
         stroke-width="3"
         stroke="#f26522"
         y2="251.50101"
         x2="371.13199"
         y1="225.207"
         x1="338.55801" />
      <line
         style="marker-end:url(#arrow_head-1)"
         id="line82"
         marker-end="url(#arrow_head-1)"
         stroke-width="3"
         stroke="#f26522"
         y2="210.811"
         x2="325.39001"
         y1="198.34399"
         x1="313.98801" />
      <line
         id="line84"
         stroke-width="3"
         stroke="#f26522"
         y2="198.336"
         x2="313.98099"
         y1="197.149"
         x1="312.88" />
      <line
         style="marker-end:url(#arrow_head-1)"
         id="line86"
         marker-end="url(#arrow_head-1)"
         stroke-width="3"
         stroke="#f26522"
         y2="187.88901"
         x2="295.70901"
         y1="178.746"
         x1="278.75" />
      <line
         style="marker-end:url(#arrow_head-1)"
         id="line88"
         marker-end="url(#arrow_head-1)"
         stroke-width="3"
         stroke="#f26522"
         y2="164.952"
         x2="264.952"
         y1="100.001"
         x1="200.00101" />
    </g>
    <g
       transform="matrix(0.26458333,0,0,0.26458333,226.96529,47.578552)"
       id="g129">
      <path
         id="path119"
         d="M 100,425 H 500 V 375 H 100 Z"
         style="fill:#ffffff;stroke:#00adee;stroke-width:3" />
      <path
         id="path121"
         d="m 375,350 h 50 V 50 h -50 z"
         style="fill:#ffffff;stroke:#00adee;stroke-width:3" />
      <line
         style="marker-end:url(#arrow_head-5)"
         id="line123"
         marker-end="url(#arrow_head-5)"
         stroke-width="3"
         stroke="#f26522"
         y2="243.071"
         x2="318.07101"
         y1="299.99301"
         x1="374.99301" />
      <line
         style="marker-end:url(#arrow_head-5)"
         id="line125"
         marker-end="url(#arrow_head-5)"
         stroke-width="3"
         stroke="#f26522"
         y2="313.789"
         x2="361.211"
         y1="374.99301"
         x1="300.00699" />
      <line
         style="marker-end:url(#arrow_head-5)"
         id="line127"
         marker-end="url(#arrow_head-5)"
         stroke-width="3"
         stroke="#f26522"
         y2="361.211"
         x2="286.211"
         y1="175.00101"
         x1="100.001" />
    </g>
  </g>
</svg>
